<svg width="59" height="49" viewBox="0 0 59 49" fill="none" xmlns="http://www.w3.org/2000/svg">
<path d="M50.15 14.6998H47.2V7.3499C47.2 5.40058 46.2676 3.53111 44.6079 2.15274C42.9482 0.774362 40.6972 0 38.35 0H8.85C6.50283 0 4.2518 0.774362 2.59211 2.15274C0.932408 3.53111 0 5.40058 0 7.3499V36.7495C0.00290717 37.2332 0.178144 37.7053 0.503627 38.1064C0.82911 38.5075 1.29027 38.8197 1.829 39.0035C2.1791 39.1406 2.56303 39.2077 2.95 39.1995C3.33824 39.2013 3.7231 39.1395 4.08252 39.0176C4.44195 38.8957 4.76885 38.716 5.0445 38.489L13.334 31.5801H17.7V35.108C17.7 37.0573 18.6324 38.9268 20.2921 40.3052C21.9518 41.6835 24.2028 42.4579 26.55 42.4579H46.964L53.9555 48.2888C54.2312 48.5159 54.5581 48.6955 54.9175 48.8175C55.2769 48.9394 55.6618 49.0012 56.05 48.9993C56.437 49.0076 56.8209 48.9405 57.171 48.8033C57.7097 48.6195 58.1709 48.3074 58.4964 47.9063C58.8219 47.5052 58.9971 47.033 59 46.5494V22.0497C59 20.1004 58.0676 18.2309 56.4079 16.8525C54.7482 15.4742 52.4972 14.6998 50.15 14.6998ZM17.7 22.0497V26.6801H12.1245C11.7363 26.6783 11.3514 26.7401 10.992 26.862C10.6326 26.9839 10.3056 27.1636 10.03 27.3906L5.9 30.8451V7.3499C5.9 6.70013 6.2108 6.07697 6.76404 5.61751C7.31727 5.15805 8.06761 4.89993 8.85 4.89993H38.35C39.1324 4.89993 39.8827 5.15805 40.436 5.61751C40.9892 6.07697 41.3 6.70013 41.3 7.3499V14.6998H26.55C24.2028 14.6998 21.9518 15.4742 20.2921 16.8525C18.6324 18.2309 17.7 20.1004 17.7 22.0497ZM53.1 40.6449L50.15 38.195C49.8768 37.9635 49.551 37.7793 49.1914 37.6531C48.8319 37.527 48.4458 37.4613 48.0555 37.46H26.55C25.7676 37.46 25.0173 37.2019 24.464 36.7424C23.9108 36.2829 23.6 35.6598 23.6 35.01V22.0497C23.6 21.3999 23.9108 20.7768 24.464 20.3173C25.0173 19.8578 25.7676 19.5997 26.55 19.5997H50.15C50.9324 19.5997 51.6827 19.8578 52.236 20.3173C52.7892 20.7768 53.1 21.3999 53.1 22.0497V40.6449Z" fill="#6C755A"/>
</svg>
