<?xml version="1.0" standalone="no"?>
<!DOCTYPE svg PUBLIC "-//W3C//DTD SVG 20010904//EN"
 "http://www.w3.org/TR/2001/REC-SVG-20010904/DTD/svg10.dtd">
<svg version="1.0" xmlns="http://www.w3.org/2000/svg"
 width="32.000000pt" height="32.000000pt" viewBox="0 0 32.000000 32.000000"
 preserveAspectRatio="xMidYMid meet">

<g transform="translate(0.000000,32.000000) scale(0.100000,-0.100000)"
fill="#000000" stroke="none">
<path d="M120 270 c-11 -11 -20 -29 -20 -40 0 -26 34 -60 60 -60 26 0 60 34
60 60 0 11 -9 29 -20 40 -11 11 -29 20 -40 20 -11 0 -29 -9 -40 -20z m70 -15
c26 -32 -13 -81 -47 -59 -23 14 -28 41 -13 59 16 19 44 19 60 0z"/>
<path d="M88 134 c-47 -20 -58 -49 -29 -78 32 -31 170 -31 202 0 29 30 18 58
-32 78 -49 20 -93 20 -141 0z m137 -18 c43 -19 45 -41 4 -55 -63 -22 -169 -6
-169 25 0 19 55 43 98 44 18 0 48 -7 67 -14z"/>
</g>
</svg>
