<?xml version="1.0" standalone="no"?>
<!DOCTYPE svg PUBLIC "-//W3C//DTD SVG 20010904//EN"
 "http://www.w3.org/TR/2001/REC-SVG-20010904/DTD/svg10.dtd">
<svg version="1.0" xmlns="http://www.w3.org/2000/svg"
 width="640.000000pt" height="1280.000000pt" viewBox="0 0 640.000000 1280.000000"
 preserveAspectRatio="xMidYMid meet">
<metadata>
Created by potrace 1.15, written by Peter Selinger 2001-2017
</metadata>
<g transform="translate(0.000000,1280.000000) scale(0.100000,-0.100000)"
fill="#000000" stroke="none">
<path d="M3840 12794 c-14 -2 -59 -9 -100 -15 -314 -44 -751 -226 -879 -365
-78 -84 -86 -113 -86 -319 1 -177 1 -181 30 -245 27 -62 29 -74 34 -243 l6
-178 -38 -11 c-47 -14 -93 -65 -108 -120 -15 -58 -6 -160 21 -230 22 -58 105
-161 138 -173 21 -7 46 -60 67 -145 27 -108 56 -192 88 -253 69 -131 320 -314
632 -459 l80 -37 3 -143 c2 -110 -1 -152 -13 -183 -15 -40 -66 -105 -83 -105
-18 0 -46 78 -52 145 -5 67 -6 70 -33 73 -42 5 -132 -25 -194 -65 -32 -20
-173 -127 -315 -237 -143 -111 -269 -207 -282 -215 -21 -13 -26 -12 -57 11
-19 14 -52 35 -74 45 -90 45 -98 45 -687 13 -1077 -59 -1108 -61 -1176 -90
-61 -26 -124 -90 -154 -155 -21 -45 -23 -64 -22 -185 1 -118 4 -146 29 -225
15 -49 40 -135 55 -190 73 -265 268 -960 315 -1122 l52 -182 -69 -64 c-59 -56
-68 -69 -68 -100 0 -26 7 -41 26 -56 15 -12 33 -21 40 -21 18 0 18 -14 -1 -30
-25 -21 -19 -76 11 -99 14 -11 34 -23 45 -26 15 -5 17 -10 9 -25 -16 -29 -12
-75 8 -93 10 -9 33 -22 51 -28 29 -10 31 -13 17 -28 -9 -10 -16 -32 -16 -50 0
-46 39 -79 97 -83 l45 -3 23 -73 c13 -41 36 -91 51 -113 35 -51 129 -113 213
-141 63 -21 85 -22 534 -28 257 -3 468 -7 468 -10 1 -6 -6 -93 -37 -425 -40
-436 -44 -486 -55 -610 -5 -66 -19 -214 -30 -330 -29 -298 -34 -433 -19 -480
7 -22 33 -60 57 -86 63 -68 129 -94 374 -151 l35 -8 16 -112 c9 -62 37 -255
62 -428 24 -173 52 -385 61 -470 97 -944 150 -1844 126 -2156 -10 -134 -40
-332 -60 -400 -6 -21 -5 -36 2 -43 6 -6 9 -12 6 -15 -23 -21 -291 -139 -494
-218 -71 -27 -136 -55 -143 -60 -20 -17 -14 -45 15 -66 110 -78 447 -80 853
-7 278 50 492 125 567 197 33 32 60 110 49 145 -11 37 -26 214 -36 423 -5 118
-19 400 -30 625 -11 226 -26 563 -35 750 -8 187 -20 446 -27 575 -19 341 -18
2001 0 2053 l14 37 114 0 113 0 15 -28 c23 -44 44 -180 61 -387 22 -277 33
-396 65 -725 30 -301 53 -658 70 -1105 10 -245 14 -370 45 -1125 8 -206 20
-481 26 -610 6 -131 8 -300 4 -382 -6 -130 -5 -149 9 -154 9 -3 16 -17 16 -29
0 -73 166 -161 415 -220 370 -88 793 -119 962 -70 68 19 116 55 111 83 -2 12
-68 43 -228 107 -289 117 -442 189 -435 207 3 8 -8 58 -25 113 -49 159 -87
389 -104 621 -45 632 -48 1833 -6 2496 l24 377 71 12 c230 38 353 100 407 204
38 72 35 152 -22 755 -26 270 -103 1109 -120 1315 -11 127 -29 324 -40 439
l-19 209 85 81 c113 105 174 187 240 321 91 188 120 343 111 605 -6 182 -25
296 -83 495 -77 263 -183 455 -352 635 -38 41 -72 84 -76 96 -3 11 -23 36 -44
56 -55 53 -557 438 -627 480 -97 60 -213 78 -207 33 5 -44 -10 -123 -32 -159
l-22 -37 -28 28 c-15 15 -35 41 -43 56 -20 39 -37 212 -28 282 6 48 10 58 32
66 50 19 246 120 311 161 326 204 449 365 511 670 10 47 18 60 47 80 45 30
110 126 129 191 21 70 19 172 -4 222 -17 39 -72 95 -92 95 -14 0 -11 76 6 155
38 177 67 420 62 520 -6 121 -40 277 -69 318 -92 129 -503 302 -862 363 -88
15 -394 27 -446 18z"/>
</g>
</svg>
