<svg width="46" height="49" viewBox="0 0 46 49" fill="none" xmlns="http://www.w3.org/2000/svg">
<path d="M39.5243 0.619707L2.15218 23.5791C-0.938209 25.4836 -0.641747 30.355 2.66425 31.8001L12.9326 36.3269V44.4043C12.9326 48.845 18.2509 50.6729 20.7125 47.1415L24.6473 41.4853L34.7001 45.9069C35.2301 46.1366 35.7871 46.2514 36.3441 46.2514C37.0807 46.2514 37.8084 46.0504 38.4642 45.658C39.6141 44.969 40.4047 43.744 40.6113 42.3563L45.9476 5.29964C46.4956 1.4619 42.6326 -1.2848 39.5243 0.619707ZM17.2448 44.4043V38.2218L20.5328 39.667L17.2448 44.4043ZM36.3441 41.6576L22.5272 35.5804L35.1223 16.2195C36.0835 14.7361 34.2688 13.0134 32.9932 14.1905L13.9927 31.8288L4.30826 27.5604L41.6804 4.59143L36.3441 41.6576Z" fill="#6C755A"/>
</svg>
